<svg xmlns="http://www.w3.org/2000/svg" xmlns:xlink="http://www.w3.org/1999/xlink" width="500" zoomAndPan="magnify" viewBox="0 0 375 374.999991" height="500" preserveAspectRatio="xMidYMid meet" version="1.0"><defs><g/><clipPath id="994c0080c8"><path d="M 97.0625 81.800781 L 261.3125 81.800781 L 261.3125 246.050781 L 97.0625 246.050781 Z M 97.0625 81.800781 " clip-rule="nonzero"/></clipPath></defs><g clip-path="url(#994c0080c8)"><path fill="#121212" d="M 179.285156 81.800781 C 133.855469 81.800781 97.0625 118.59375 97.0625 164.023438 C 97.0625 209.453125 133.855469 246.25 179.285156 246.25 C 224.714844 246.25 261.511719 209.453125 261.511719 164.023438 C 261.511719 118.59375 224.714844 81.800781 179.285156 81.800781 Z M 179.285156 81.800781 " fill-opacity="1" fill-rule="nonzero"/></g><g fill="#f4f4f4" fill-opacity="1"><g transform="translate(74.506077, 210.914104)"><g><path d="M 8.695312 0 L 92.753906 0 L 94.117188 -22.675781 L 92.242188 -23.019531 C 86.105469 -7.160156 75.703125 -2.558594 59.335938 -2.558594 L 37.167969 -2.558594 C 32.226562 -2.558594 29.496094 -5.285156 29.496094 -10.230469 L 29.496094 -62.574219 L 51.320312 -62.574219 C 70.757812 -62.574219 75.703125 -58.652344 77.75 -50.980469 L 79.796875 -50.980469 L 79.796875 -76.726562 L 77.75 -76.726562 C 75.703125 -69.054688 70.757812 -65.132812 51.320312 -65.132812 L 29.496094 -65.132812 L 29.496094 -116.796875 L 54.5625 -116.796875 C 71.953125 -116.796875 82.011719 -111.679688 87.980469 -96.675781 L 89.855469 -97.1875 L 87.980469 -119.351562 L 8.695312 -119.351562 L 8.695312 -117.136719 C 13.8125 -115.601562 15.515625 -111.679688 15.515625 -97.699219 L 15.515625 -21.652344 C 15.515625 -7.671875 13.8125 -3.75 8.695312 -2.214844 Z M 8.695312 0 "/></g></g></g><g fill="#f4f4f4" fill-opacity="1"><g transform="translate(170.392418, 233.727847)"><g><path d="M 8.265625 0 L 41.320312 0 C 80.699219 0 94.308594 -19.121094 93.984375 -37.269531 C 93.824219 -53.152344 82.15625 -66.277344 55.742188 -67.574219 C 74.214844 -70.976562 81.347656 -81.023438 81.347656 -92.039062 C 81.347656 -105.167969 71.136719 -113.429688 46.183594 -113.429688 L 8.265625 -113.429688 L 8.265625 -111.324219 C 13.125 -109.867188 14.746094 -106.140625 14.746094 -92.851562 L 14.746094 -20.578125 C 14.746094 -7.292969 13.125 -3.566406 8.265625 -2.105469 Z M 28.035156 -16.527344 L 28.035156 -65.464844 L 44.5625 -65.464844 C 68.867188 -65.464844 79.238281 -51.855469 79.238281 -33.21875 C 79.238281 -15.230469 69.191406 -2.429688 42.78125 -2.429688 L 36.460938 -2.429688 C 29.492188 -2.429688 28.035156 -4.859375 28.035156 -16.527344 Z M 28.035156 -67.894531 L 28.035156 -111 L 40.347656 -111 C 57.039062 -111 66.601562 -102.574219 66.601562 -89.125 C 66.601562 -77.296875 59.144531 -67.894531 43.105469 -67.894531 Z M 28.035156 -67.894531 "/></g></g></g></svg>