<svg xmlns="http://www.w3.org/2000/svg" xmlns:xlink="http://www.w3.org/1999/xlink" width="500" zoomAndPan="magnify" viewBox="0 0 375 374.999991" height="500" preserveAspectRatio="xMidYMid meet" version="1.0"><defs><g/><clipPath id="897a735865"><path d="M 207.953125 124.769531 L 218.453125 124.769531 L 218.453125 135.269531 L 207.953125 135.269531 Z M 207.953125 124.769531 " clip-rule="nonzero"/></clipPath></defs><rect x="-37.5" width="450" fill="#ffffff" y="-37.499999" height="449.999989" fill-opacity="1"/><rect x="-37.5" width="450" fill="#f6f4ee" y="-37.499999" height="449.999989" fill-opacity="1"/><g fill="#000000" fill-opacity="1"><g transform="translate(139.528004, 175.371303)"><g><path d="M 4.179688 0 L 44.566406 0 L 45.222656 -10.894531 L 44.320312 -11.058594 C 41.371094 -3.441406 36.375 -1.230469 28.507812 -1.230469 L 17.859375 -1.230469 C 15.484375 -1.230469 14.171875 -2.539062 14.171875 -4.914062 L 14.171875 -30.066406 L 24.660156 -30.066406 C 33.996094 -30.066406 36.375 -28.179688 37.355469 -24.496094 L 38.339844 -24.496094 L 38.339844 -36.863281 L 37.355469 -36.863281 C 36.375 -33.179688 33.996094 -31.292969 24.660156 -31.292969 L 14.171875 -31.292969 L 14.171875 -56.117188 L 26.214844 -56.117188 C 34.570312 -56.117188 39.40625 -53.660156 42.273438 -46.449219 L 43.171875 -46.695312 L 42.273438 -57.347656 L 4.179688 -57.347656 L 4.179688 -56.28125 C 6.636719 -55.542969 7.453125 -53.660156 7.453125 -46.941406 L 7.453125 -10.402344 C 7.453125 -3.6875 6.636719 -1.800781 4.179688 -1.066406 Z M 4.179688 0 "/></g></g></g><g fill="#000000" fill-opacity="1"><g transform="translate(191.543858, 175.371303)"><g><path d="M 4.179688 0 L 20.890625 0 C 40.796875 0 47.679688 -9.667969 47.515625 -18.84375 C 47.433594 -26.871094 41.535156 -33.507812 28.179688 -34.160156 C 37.519531 -35.882812 41.125 -40.960938 41.125 -46.53125 C 41.125 -53.167969 35.964844 -57.347656 23.347656 -57.347656 L 4.179688 -57.347656 L 4.179688 -56.28125 C 6.636719 -55.542969 7.453125 -53.660156 7.453125 -46.941406 L 7.453125 -10.402344 C 7.453125 -3.6875 6.636719 -1.800781 4.179688 -1.066406 Z M 14.171875 -8.355469 L 14.171875 -33.097656 L 22.527344 -33.097656 C 34.816406 -33.097656 40.058594 -26.214844 40.058594 -16.792969 C 40.058594 -7.699219 34.980469 -1.230469 21.628906 -1.230469 L 18.433594 -1.230469 C 14.910156 -1.230469 14.171875 -2.457031 14.171875 -8.355469 Z M 14.171875 -34.324219 L 14.171875 -56.117188 L 20.398438 -56.117188 C 28.835938 -56.117188 33.671875 -51.855469 33.671875 -45.058594 C 33.671875 -39.078125 29.902344 -34.324219 21.792969 -34.324219 Z M 14.171875 -34.324219 "/></g></g></g><g clip-path="url(#897a735865)"><path fill="#000000" d="M 213.125 124.769531 C 213.125 127.625 210.808594 129.941406 207.953125 129.941406 C 210.808594 129.941406 213.125 132.257812 213.125 135.117188 C 213.125 132.257812 215.441406 129.941406 218.300781 129.941406 C 215.441406 129.941406 213.125 127.625 213.125 124.769531 Z M 213.125 124.769531 " fill-opacity="1" fill-rule="nonzero"/></g><g fill="#000000" fill-opacity="1"><g transform="translate(112.564018, 233.574697)"><g><path d="M 2.90625 0.125 C 2.382812 0.125 1.878906 0.0625 1.390625 -0.0625 C 0.898438 -0.1875 0.5 -0.359375 0.1875 -0.578125 L 0.796875 -1.921875 C 1.078125 -1.734375 1.40625 -1.578125 1.78125 -1.453125 C 2.164062 -1.335938 2.546875 -1.28125 2.921875 -1.28125 C 3.617188 -1.28125 3.96875 -1.457031 3.96875 -1.8125 C 3.96875 -2 3.867188 -2.132812 3.671875 -2.21875 C 3.472656 -2.3125 3.148438 -2.40625 2.703125 -2.5 C 2.222656 -2.601562 1.816406 -2.710938 1.484375 -2.828125 C 1.160156 -2.953125 0.878906 -3.144531 0.640625 -3.40625 C 0.410156 -3.675781 0.296875 -4.035156 0.296875 -4.484375 C 0.296875 -4.878906 0.40625 -5.234375 0.625 -5.546875 C 0.84375 -5.859375 1.164062 -6.109375 1.59375 -6.296875 C 2.019531 -6.484375 2.539062 -6.578125 3.15625 -6.578125 C 3.582031 -6.578125 4 -6.523438 4.40625 -6.421875 C 4.820312 -6.328125 5.1875 -6.191406 5.5 -6.015625 L 4.9375 -4.65625 C 4.320312 -4.988281 3.722656 -5.15625 3.140625 -5.15625 C 2.785156 -5.15625 2.523438 -5.097656 2.359375 -4.984375 C 2.191406 -4.878906 2.109375 -4.742188 2.109375 -4.578125 C 2.109375 -4.398438 2.207031 -4.269531 2.40625 -4.1875 C 2.601562 -4.101562 2.914062 -4.015625 3.34375 -3.921875 C 3.84375 -3.816406 4.25 -3.703125 4.5625 -3.578125 C 4.882812 -3.460938 5.164062 -3.273438 5.40625 -3.015625 C 5.644531 -2.753906 5.765625 -2.398438 5.765625 -1.953125 C 5.765625 -1.566406 5.65625 -1.21875 5.4375 -0.90625 C 5.21875 -0.59375 4.894531 -0.34375 4.46875 -0.15625 C 4.039062 0.03125 3.519531 0.125 2.90625 0.125 Z M 2.90625 0.125 "/></g></g></g><g fill="#000000" fill-opacity="1"><g transform="translate(121.028243, 233.574697)"><g><path d="M 3.890625 0.125 C 3.210938 0.125 2.601562 -0.015625 2.0625 -0.296875 C 1.519531 -0.585938 1.09375 -0.988281 0.78125 -1.5 C 0.46875 -2.007812 0.3125 -2.582031 0.3125 -3.21875 C 0.3125 -3.851562 0.46875 -4.425781 0.78125 -4.9375 C 1.09375 -5.445312 1.519531 -5.847656 2.0625 -6.140625 C 2.601562 -6.429688 3.210938 -6.578125 3.890625 -6.578125 C 4.578125 -6.578125 5.191406 -6.429688 5.734375 -6.140625 C 6.273438 -5.847656 6.695312 -5.445312 7 -4.9375 C 7.3125 -4.425781 7.46875 -3.851562 7.46875 -3.21875 C 7.46875 -2.582031 7.3125 -2.007812 7 -1.5 C 6.695312 -0.988281 6.273438 -0.585938 5.734375 -0.296875 C 5.191406 -0.015625 4.578125 0.125 3.890625 0.125 Z M 3.890625 -1.375 C 4.210938 -1.375 4.503906 -1.453125 4.765625 -1.609375 C 5.035156 -1.765625 5.242188 -1.976562 5.390625 -2.25 C 5.546875 -2.53125 5.625 -2.851562 5.625 -3.21875 C 5.625 -3.582031 5.546875 -3.90625 5.390625 -4.1875 C 5.242188 -4.46875 5.035156 -4.679688 4.765625 -4.828125 C 4.503906 -4.984375 4.210938 -5.0625 3.890625 -5.0625 C 3.566406 -5.0625 3.269531 -4.984375 3 -4.828125 C 2.738281 -4.679688 2.53125 -4.46875 2.375 -4.1875 C 2.226562 -3.90625 2.15625 -3.582031 2.15625 -3.21875 C 2.15625 -2.851562 2.226562 -2.53125 2.375 -2.25 C 2.53125 -1.976562 2.738281 -1.765625 3 -1.609375 C 3.269531 -1.453125 3.566406 -1.375 3.890625 -1.375 Z M 3.890625 -1.375 "/></g></g></g><g fill="#000000" fill-opacity="1"><g transform="translate(131.323123, 233.574697)"><g><path d="M 2.46875 -5.03125 L 2.46875 -3.609375 L 5.3125 -3.609375 L 5.3125 -2.203125 L 2.46875 -2.203125 L 2.46875 0 L 0.640625 0 L 0.640625 -6.4375 L 5.703125 -6.4375 L 5.703125 -5.03125 Z M 2.46875 -5.03125 "/></g></g></g><g fill="#000000" fill-opacity="1"><g transform="translate(139.741354, 233.574697)"><g><path d="M 2.015625 -5 L 0.03125 -5 L 0.03125 -6.4375 L 5.8125 -6.4375 L 5.8125 -5 L 3.84375 -5 L 3.84375 0 L 2.015625 0 Z M 2.015625 -5 "/></g></g></g><g fill="#000000" fill-opacity="1"><g transform="translate(148.095191, 233.574697)"><g><path d="M 10.75 -6.4375 L 8.65625 0 L 6.703125 0 L 5.46875 -3.921875 L 4.1875 0 L 2.234375 0 L 0.140625 -6.4375 L 2.03125 -6.4375 L 3.328125 -2.328125 L 4.6875 -6.4375 L 6.359375 -6.4375 L 7.65625 -2.296875 L 9.015625 -6.4375 Z M 10.75 -6.4375 "/></g></g></g><g fill="#000000" fill-opacity="1"><g transform="translate(161.49942, 233.574697)"><g><path d="M 4.953125 -1.25 L 2.234375 -1.25 L 1.734375 0 L -0.125 0 L 2.71875 -6.4375 L 4.515625 -6.4375 L 7.359375 0 L 5.46875 0 Z M 4.421875 -2.59375 L 3.59375 -4.65625 L 2.765625 -2.59375 Z M 4.421875 -2.59375 "/></g></g></g><g fill="#000000" fill-opacity="1"><g transform="translate(171.242342, 233.574697)"><g><path d="M 3.453125 -1.71875 L 2.46875 -1.71875 L 2.46875 0 L 0.640625 0 L 0.640625 -6.4375 L 3.59375 -6.4375 C 4.175781 -6.4375 4.679688 -6.335938 5.109375 -6.140625 C 5.535156 -5.953125 5.863281 -5.675781 6.09375 -5.3125 C 6.332031 -4.957031 6.453125 -4.539062 6.453125 -4.0625 C 6.453125 -3.59375 6.34375 -3.179688 6.125 -2.828125 C 5.90625 -2.484375 5.59375 -2.21875 5.1875 -2.03125 L 6.578125 0 L 4.625 0 Z M 4.609375 -4.0625 C 4.609375 -4.363281 4.515625 -4.59375 4.328125 -4.75 C 4.140625 -4.914062 3.859375 -5 3.484375 -5 L 2.46875 -5 L 2.46875 -3.125 L 3.484375 -3.125 C 3.859375 -3.125 4.140625 -3.203125 4.328125 -3.359375 C 4.515625 -3.523438 4.609375 -3.757812 4.609375 -4.0625 Z M 4.609375 -4.0625 "/></g></g></g><g fill="#000000" fill-opacity="1"><g transform="translate(180.562095, 233.574697)"><g><path d="M 5.8125 -1.40625 L 5.8125 0 L 0.640625 0 L 0.640625 -6.4375 L 5.703125 -6.4375 L 5.703125 -5.03125 L 2.453125 -5.03125 L 2.453125 -3.953125 L 5.3125 -3.953125 L 5.3125 -2.59375 L 2.453125 -2.59375 L 2.453125 -1.40625 Z M 5.8125 -1.40625 "/></g></g></g><g fill="#000000" fill-opacity="1"><g transform="translate(189.256302, 233.574697)"><g/></g></g><g fill="#000000" fill-opacity="1"><g transform="translate(194.445597, 233.574697)"><g><path d="M 5.8125 -1.40625 L 5.8125 0 L 0.640625 0 L 0.640625 -6.4375 L 5.703125 -6.4375 L 5.703125 -5.03125 L 2.453125 -5.03125 L 2.453125 -3.953125 L 5.3125 -3.953125 L 5.3125 -2.59375 L 2.453125 -2.59375 L 2.453125 -1.40625 Z M 5.8125 -1.40625 "/></g></g></g><g fill="#000000" fill-opacity="1"><g transform="translate(203.139804, 233.574697)"><g><path d="M 6.78125 -6.4375 L 6.78125 0 L 5.265625 0 L 2.421875 -3.4375 L 2.421875 0 L 0.640625 0 L 0.640625 -6.4375 L 2.140625 -6.4375 L 4.984375 -3.015625 L 4.984375 -6.4375 Z M 6.78125 -6.4375 "/></g></g></g><g fill="#000000" fill-opacity="1"><g transform="translate(213.066712, 233.574697)"><g><path d="M 4.953125 -3.359375 L 6.578125 -3.359375 L 6.578125 -0.6875 C 6.203125 -0.425781 5.773438 -0.222656 5.296875 -0.078125 C 4.816406 0.0546875 4.335938 0.125 3.859375 0.125 C 3.191406 0.125 2.585938 -0.015625 2.046875 -0.296875 C 1.503906 -0.585938 1.078125 -0.984375 0.765625 -1.484375 C 0.460938 -1.992188 0.3125 -2.570312 0.3125 -3.21875 C 0.3125 -3.863281 0.460938 -4.441406 0.765625 -4.953125 C 1.078125 -5.460938 1.503906 -5.859375 2.046875 -6.140625 C 2.597656 -6.429688 3.21875 -6.578125 3.90625 -6.578125 C 4.5 -6.578125 5.035156 -6.472656 5.515625 -6.265625 C 5.992188 -6.066406 6.394531 -5.773438 6.71875 -5.390625 L 5.5625 -4.34375 C 5.125 -4.820312 4.601562 -5.0625 4 -5.0625 C 3.445312 -5.0625 3 -4.894531 2.65625 -4.5625 C 2.320312 -4.226562 2.15625 -3.78125 2.15625 -3.21875 C 2.15625 -2.863281 2.226562 -2.546875 2.375 -2.265625 C 2.53125 -1.984375 2.742188 -1.765625 3.015625 -1.609375 C 3.296875 -1.453125 3.613281 -1.375 3.96875 -1.375 C 4.320312 -1.375 4.648438 -1.445312 4.953125 -1.59375 Z M 4.953125 -3.359375 "/></g></g></g><g fill="#000000" fill-opacity="1"><g transform="translate(222.662445, 233.574697)"><g><path d="M 0.640625 -6.4375 L 2.46875 -6.4375 L 2.46875 0 L 0.640625 0 Z M 0.640625 -6.4375 "/></g></g></g><g fill="#000000" fill-opacity="1"><g transform="translate(228.293293, 233.574697)"><g><path d="M 6.78125 -6.4375 L 6.78125 0 L 5.265625 0 L 2.421875 -3.4375 L 2.421875 0 L 0.640625 0 L 0.640625 -6.4375 L 2.140625 -6.4375 L 4.984375 -3.015625 L 4.984375 -6.4375 Z M 6.78125 -6.4375 "/></g></g></g><g fill="#000000" fill-opacity="1"><g transform="translate(238.220195, 233.574697)"><g><path d="M 5.8125 -1.40625 L 5.8125 0 L 0.640625 0 L 0.640625 -6.4375 L 5.703125 -6.4375 L 5.703125 -5.03125 L 2.453125 -5.03125 L 2.453125 -3.953125 L 5.3125 -3.953125 L 5.3125 -2.59375 L 2.453125 -2.59375 L 2.453125 -1.40625 Z M 5.8125 -1.40625 "/></g></g></g><g fill="#000000" fill-opacity="1"><g transform="translate(246.914397, 233.574697)"><g><path d="M 5.8125 -1.40625 L 5.8125 0 L 0.640625 0 L 0.640625 -6.4375 L 5.703125 -6.4375 L 5.703125 -5.03125 L 2.453125 -5.03125 L 2.453125 -3.953125 L 5.3125 -3.953125 L 5.3125 -2.59375 L 2.453125 -2.59375 L 2.453125 -1.40625 Z M 5.8125 -1.40625 "/></g></g></g><g fill="#000000" fill-opacity="1"><g transform="translate(255.608598, 233.574697)"><g><path d="M 3.453125 -1.71875 L 2.46875 -1.71875 L 2.46875 0 L 0.640625 0 L 0.640625 -6.4375 L 3.59375 -6.4375 C 4.175781 -6.4375 4.679688 -6.335938 5.109375 -6.140625 C 5.535156 -5.953125 5.863281 -5.675781 6.09375 -5.3125 C 6.332031 -4.957031 6.453125 -4.539062 6.453125 -4.0625 C 6.453125 -3.59375 6.34375 -3.179688 6.125 -2.828125 C 5.90625 -2.484375 5.59375 -2.21875 5.1875 -2.03125 L 6.578125 0 L 4.625 0 Z M 4.609375 -4.0625 C 4.609375 -4.363281 4.515625 -4.59375 4.328125 -4.75 C 4.140625 -4.914062 3.859375 -5 3.484375 -5 L 2.46875 -5 L 2.46875 -3.125 L 3.484375 -3.125 C 3.859375 -3.125 4.140625 -3.203125 4.328125 -3.359375 C 4.515625 -3.523438 4.609375 -3.757812 4.609375 -4.0625 Z M 4.609375 -4.0625 "/></g></g></g><g fill="#000000" fill-opacity="1"><g transform="translate(67.108817, 214.345356)"><g><path d="M 14.109375 -1.484375 L 14.109375 0 L 2.640625 0 L 2.640625 -16.21875 L 13.765625 -16.21875 L 13.765625 -14.734375 L 4.359375 -14.734375 L 4.359375 -8.96875 L 12.75 -8.96875 L 12.75 -7.5 L 4.359375 -7.5 L 4.359375 -1.484375 Z M 14.109375 -1.484375 "/></g></g></g><g fill="#000000" fill-opacity="1"><g transform="translate(88.416669, 214.345356)"><g><path d="M 14.34375 -1.484375 L 14.34375 0 L 1.046875 0 L 1.046875 -1.1875 L 11.796875 -14.734375 L 1.203125 -14.734375 L 1.203125 -16.21875 L 14.0625 -16.21875 L 14.0625 -15.03125 L 3.34375 -1.484375 Z M 14.34375 -1.484375 "/></g></g></g><g fill="#000000" fill-opacity="1"><g transform="translate(109.307716, 214.345356)"><g><path d="M 14.109375 -1.484375 L 14.109375 0 L 2.640625 0 L 2.640625 -16.21875 L 13.765625 -16.21875 L 13.765625 -14.734375 L 4.359375 -14.734375 L 4.359375 -8.96875 L 12.75 -8.96875 L 12.75 -7.5 L 4.359375 -7.5 L 4.359375 -1.484375 Z M 14.109375 -1.484375 "/></g></g></g><g fill="#000000" fill-opacity="1"><g transform="translate(130.615569, 214.345356)"><g><path d="M 18.984375 1.359375 C 18.484375 1.960938 17.894531 2.421875 17.21875 2.734375 C 16.550781 3.054688 15.820312 3.21875 15.03125 3.21875 C 14.082031 3.21875 13.175781 2.984375 12.3125 2.515625 C 11.457031 2.046875 10.5 1.253906 9.4375 0.140625 C 7.875 0.0859375 6.46875 -0.296875 5.21875 -1.015625 C 3.96875 -1.742188 2.984375 -2.722656 2.265625 -3.953125 C 1.554688 -5.191406 1.203125 -6.578125 1.203125 -8.109375 C 1.203125 -9.671875 1.566406 -11.078125 2.296875 -12.328125 C 3.035156 -13.578125 4.054688 -14.5625 5.359375 -15.28125 C 6.671875 -16 8.128906 -16.359375 9.734375 -16.359375 C 11.335938 -16.359375 12.785156 -16.003906 14.078125 -15.296875 C 15.367188 -14.585938 16.382812 -13.601562 17.125 -12.34375 C 17.863281 -11.082031 18.234375 -9.671875 18.234375 -8.109375 C 18.234375 -6.753906 17.953125 -5.507812 17.390625 -4.375 C 16.828125 -3.238281 16.039062 -2.289062 15.03125 -1.53125 C 14.019531 -0.769531 12.859375 -0.265625 11.546875 -0.015625 C 12.734375 1.234375 13.90625 1.859375 15.0625 1.859375 C 16.269531 1.859375 17.296875 1.363281 18.140625 0.375 Z M 2.890625 -8.109375 C 2.890625 -6.835938 3.1875 -5.691406 3.78125 -4.671875 C 4.382812 -3.660156 5.207031 -2.859375 6.25 -2.265625 C 7.289062 -1.679688 8.453125 -1.390625 9.734375 -1.390625 C 11.015625 -1.390625 12.171875 -1.679688 13.203125 -2.265625 C 14.242188 -2.859375 15.054688 -3.660156 15.640625 -4.671875 C 16.222656 -5.691406 16.515625 -6.835938 16.515625 -8.109375 C 16.515625 -9.378906 16.222656 -10.519531 15.640625 -11.53125 C 15.054688 -12.550781 14.242188 -13.351562 13.203125 -13.9375 C 12.171875 -14.53125 11.015625 -14.828125 9.734375 -14.828125 C 8.453125 -14.828125 7.289062 -14.53125 6.25 -13.9375 C 5.207031 -13.351562 4.382812 -12.550781 3.78125 -11.53125 C 3.1875 -10.519531 2.890625 -9.378906 2.890625 -8.109375 Z M 2.890625 -8.109375 "/></g></g></g><g fill="#000000" fill-opacity="1"><g transform="translate(155.859986, 214.345356)"><g><path d="M 9.171875 0.140625 C 7.078125 0.140625 5.441406 -0.457031 4.265625 -1.65625 C 3.085938 -2.863281 2.5 -4.617188 2.5 -6.921875 L 2.5 -16.21875 L 4.21875 -16.21875 L 4.21875 -7 C 4.21875 -5.113281 4.640625 -3.707031 5.484375 -2.78125 C 6.335938 -1.851562 7.566406 -1.390625 9.171875 -1.390625 C 10.796875 -1.390625 12.03125 -1.851562 12.875 -2.78125 C 13.726562 -3.707031 14.15625 -5.113281 14.15625 -7 L 14.15625 -16.21875 L 15.828125 -16.21875 L 15.828125 -6.921875 C 15.828125 -4.617188 15.242188 -2.863281 14.078125 -1.65625 C 12.910156 -0.457031 11.273438 0.140625 9.171875 0.140625 Z M 9.171875 0.140625 "/></g></g></g><g fill="#000000" fill-opacity="1"><g transform="translate(180.016059, 214.345356)"><g><path d="M 2.640625 -16.21875 L 4.359375 -16.21875 L 4.359375 0 L 2.640625 0 Z M 2.640625 -16.21875 "/></g></g></g><g fill="#000000" fill-opacity="1"><g transform="translate(192.825579, 214.345356)"><g><path d="M 14.109375 -1.484375 L 14.109375 0 L 2.640625 0 L 2.640625 -16.21875 L 13.765625 -16.21875 L 13.765625 -14.734375 L 4.359375 -14.734375 L 4.359375 -8.96875 L 12.75 -8.96875 L 12.75 -7.5 L 4.359375 -7.5 L 4.359375 -1.484375 Z M 14.109375 -1.484375 "/></g></g></g><g fill="#000000" fill-opacity="1"><g transform="translate(214.133435, 214.345356)"><g><path d="M 2.640625 -16.21875 L 4.359375 -16.21875 L 4.359375 -1.484375 L 13.4375 -1.484375 L 13.4375 0 L 2.640625 0 Z M 2.640625 -16.21875 "/></g></g></g><g fill="#000000" fill-opacity="1"><g transform="translate(233.58879, 214.345356)"><g/></g></g><g fill="#000000" fill-opacity="1"><g transform="translate(245.472071, 214.345356)"><g><path d="M 2.640625 -16.21875 L 9.25 -16.21875 C 10.957031 -16.21875 12.46875 -15.875 13.78125 -15.1875 C 15.09375 -14.5 16.113281 -13.539062 16.84375 -12.3125 C 17.570312 -11.082031 17.9375 -9.679688 17.9375 -8.109375 C 17.9375 -6.535156 17.570312 -5.132812 16.84375 -3.90625 C 16.113281 -2.675781 15.09375 -1.71875 13.78125 -1.03125 C 12.46875 -0.34375 10.957031 0 9.25 0 L 2.640625 0 Z M 9.15625 -1.484375 C 10.570312 -1.484375 11.8125 -1.765625 12.875 -2.328125 C 13.945312 -2.890625 14.773438 -3.664062 15.359375 -4.65625 C 15.953125 -5.65625 16.25 -6.804688 16.25 -8.109375 C 16.25 -9.410156 15.953125 -10.554688 15.359375 -11.546875 C 14.773438 -12.546875 13.945312 -13.328125 12.875 -13.890625 C 11.8125 -14.453125 10.570312 -14.734375 9.15625 -14.734375 L 4.359375 -14.734375 L 4.359375 -1.484375 Z M 9.15625 -1.484375 "/></g></g></g><g fill="#000000" fill-opacity="1"><g transform="translate(270.415452, 214.345356)"><g><path d="M 14.109375 -1.484375 L 14.109375 0 L 2.640625 0 L 2.640625 -16.21875 L 13.765625 -16.21875 L 13.765625 -14.734375 L 4.359375 -14.734375 L 4.359375 -8.96875 L 12.75 -8.96875 L 12.75 -7.5 L 4.359375 -7.5 L 4.359375 -1.484375 Z M 14.109375 -1.484375 "/></g></g></g><g fill="#000000" fill-opacity="1"><g transform="translate(291.723296, 214.345356)"><g><path d="M 16.125 -16.21875 L 8.9375 0 L 7.25 0 L 0.0625 -16.21875 L 1.921875 -16.21875 L 8.140625 -2.125 L 14.390625 -16.21875 Z M 16.125 -16.21875 "/></g></g></g></svg>